<mxfile host="app.diagrams.net" modified="2023-09-20T07:49:45.559Z" agent="Mozilla/5.0 (Windows NT 10.0; Win64; x64) AppleWebKit/537.36 (KHTML, like Gecko) Chrome/116.0.0.0 Safari/537.36" etag="5gT5JZl1aEPpR5VIEjJO" version="21.5.0" type="google">
  <diagram name="Page-1" id="pQgEi4TKMrtLYsIjfS9n">
    <mxGraphModel grid="1" page="1" gridSize="10" guides="1" tooltips="1" connect="1" arrows="1" fold="1" pageScale="1" pageWidth="850" pageHeight="1100" math="0" shadow="0">
      <root>
        <mxCell id="0" />
        <mxCell id="1" parent="0" />
        <mxCell id="t_eO4pz093gWGPjJEfdi-29" value="" style="group" connectable="0" vertex="1" parent="1">
          <mxGeometry x="120" y="50" width="610" height="270" as="geometry" />
        </mxCell>
        <mxCell id="t_eO4pz093gWGPjJEfdi-18" value="" style="group" connectable="0" vertex="1" parent="t_eO4pz093gWGPjJEfdi-29">
          <mxGeometry width="610" height="270" as="geometry" />
        </mxCell>
        <mxCell id="t_eO4pz093gWGPjJEfdi-8" value="" style="rounded=0;whiteSpace=wrap;html=1;" vertex="1" parent="t_eO4pz093gWGPjJEfdi-18">
          <mxGeometry width="610" height="270" as="geometry" />
        </mxCell>
        <mxCell id="t_eO4pz093gWGPjJEfdi-15" value="" style="rounded=0;whiteSpace=wrap;html=1;" vertex="1" parent="t_eO4pz093gWGPjJEfdi-18">
          <mxGeometry width="210" height="270" as="geometry" />
        </mxCell>
        <mxCell id="t_eO4pz093gWGPjJEfdi-16" value="" style="rounded=0;whiteSpace=wrap;html=1;" vertex="1" parent="t_eO4pz093gWGPjJEfdi-18">
          <mxGeometry x="210" width="140" height="270" as="geometry" />
        </mxCell>
        <mxCell id="t_eO4pz093gWGPjJEfdi-17" value="" style="rounded=0;whiteSpace=wrap;html=1;" vertex="1" parent="t_eO4pz093gWGPjJEfdi-18">
          <mxGeometry x="350" width="260" height="270" as="geometry" />
        </mxCell>
        <mxCell id="t_eO4pz093gWGPjJEfdi-25" value="" style="endArrow=none;html=1;rounded=0;exitX=0;exitY=0.25;exitDx=0;exitDy=0;entryX=1;entryY=0.25;entryDx=0;entryDy=0;" edge="1" parent="t_eO4pz093gWGPjJEfdi-18" source="t_eO4pz093gWGPjJEfdi-16" target="t_eO4pz093gWGPjJEfdi-16">
          <mxGeometry width="50" height="50" relative="1" as="geometry">
            <mxPoint x="255" y="120" as="sourcePoint" />
            <mxPoint x="305" y="70" as="targetPoint" />
          </mxGeometry>
        </mxCell>
        <mxCell id="t_eO4pz093gWGPjJEfdi-27" value="" style="endArrow=none;html=1;rounded=0;entryX=0.5;entryY=0;entryDx=0;entryDy=0;" edge="1" parent="t_eO4pz093gWGPjJEfdi-29" target="t_eO4pz093gWGPjJEfdi-16">
          <mxGeometry width="50" height="50" relative="1" as="geometry">
            <mxPoint x="280" y="70" as="sourcePoint" />
            <mxPoint x="330" y="150" as="targetPoint" />
          </mxGeometry>
        </mxCell>
        <mxCell id="t_eO4pz093gWGPjJEfdi-30" value="" style="group" connectable="0" vertex="1" parent="1">
          <mxGeometry x="120" y="370" width="610" height="270" as="geometry" />
        </mxCell>
        <mxCell id="t_eO4pz093gWGPjJEfdi-19" value="" style="group" connectable="0" vertex="1" parent="t_eO4pz093gWGPjJEfdi-30">
          <mxGeometry width="610" height="270" as="geometry" />
        </mxCell>
        <mxCell id="t_eO4pz093gWGPjJEfdi-20" value="" style="rounded=0;whiteSpace=wrap;html=1;" vertex="1" parent="t_eO4pz093gWGPjJEfdi-19">
          <mxGeometry width="610" height="270" as="geometry" />
        </mxCell>
        <mxCell id="t_eO4pz093gWGPjJEfdi-21" value="" style="rounded=0;whiteSpace=wrap;html=1;" vertex="1" parent="t_eO4pz093gWGPjJEfdi-19">
          <mxGeometry width="210" height="270" as="geometry" />
        </mxCell>
        <mxCell id="t_eO4pz093gWGPjJEfdi-22" value="" style="rounded=0;whiteSpace=wrap;html=1;" vertex="1" parent="t_eO4pz093gWGPjJEfdi-19">
          <mxGeometry x="210" width="140" height="270" as="geometry" />
        </mxCell>
        <mxCell id="t_eO4pz093gWGPjJEfdi-23" value="" style="rounded=0;whiteSpace=wrap;html=1;" vertex="1" parent="t_eO4pz093gWGPjJEfdi-19">
          <mxGeometry x="350" width="260" height="270" as="geometry" />
        </mxCell>
        <mxCell id="t_eO4pz093gWGPjJEfdi-26" value="" style="endArrow=none;html=1;rounded=0;exitX=0;exitY=0.25;exitDx=0;exitDy=0;entryX=1;entryY=0.25;entryDx=0;entryDy=0;" edge="1" parent="t_eO4pz093gWGPjJEfdi-19">
          <mxGeometry width="50" height="50" relative="1" as="geometry">
            <mxPoint x="210" y="100" as="sourcePoint" />
            <mxPoint x="350" y="100" as="targetPoint" />
          </mxGeometry>
        </mxCell>
        <mxCell id="t_eO4pz093gWGPjJEfdi-31" value="" style="rounded=0;whiteSpace=wrap;html=1;" vertex="1" parent="t_eO4pz093gWGPjJEfdi-19">
          <mxGeometry x="350" y="105" width="10" height="60" as="geometry" />
        </mxCell>
        <mxCell id="t_eO4pz093gWGPjJEfdi-28" value="" style="endArrow=none;html=1;rounded=0;entryX=0.5;entryY=0;entryDx=0;entryDy=0;" edge="1" parent="t_eO4pz093gWGPjJEfdi-30" target="t_eO4pz093gWGPjJEfdi-22">
          <mxGeometry width="50" height="50" relative="1" as="geometry">
            <mxPoint x="280" y="70" as="sourcePoint" />
            <mxPoint x="330" y="10" as="targetPoint" />
          </mxGeometry>
        </mxCell>
      </root>
    </mxGraphModel>
  </diagram>
</mxfile>
